<svg width="18" height="15" viewBox="0 0 18 15" fill="none" xmlns="http://www.w3.org/2000/svg">
<path d="M5.65426 14.6363C12.4466 14.6363 16.1633 9.0036 16.1633 4.12725C16.1633 3.96879 16.1633 3.81032 16.1561 3.65186C16.8764 3.13325 17.503 2.47779 18 1.73589C17.3373 2.03121 16.6243 2.22569 15.8752 2.31933C16.6387 1.86555 17.2221 1.13806 17.503 0.27371C16.7899 0.69868 15.9976 1.0012 15.1549 1.16687C14.4778 0.44658 13.5198 0 12.461 0C10.4226 0 8.76591 1.65666 8.76591 3.69508C8.76591 3.98319 8.80192 4.26411 8.85954 4.53782C5.79112 4.38655 3.06843 2.90996 1.2461 0.67707C0.929172 1.22449 0.7491 1.85834 0.7491 2.53541C0.7491 3.81753 1.40456 4.94838 2.39136 5.61104C1.78631 5.58944 1.21729 5.42377 0.720288 5.15006C0.720288 5.16447 0.720288 5.17887 0.720288 5.20048C0.720288 6.98679 1.9952 8.485 3.68067 8.8235C3.37095 8.91 3.04682 8.9532 2.70828 8.9532C2.47059 8.9532 2.2401 8.9316 2.01681 8.8884C2.48499 10.3577 3.85354 11.4238 5.46699 11.4526C4.19928 12.4466 2.60744 13.0372 0.878752 13.0372C0.583433 13.0372 0.288115 13.0228 0 12.9868C1.62785 14.024 3.57263 14.6363 5.65426 14.6363Z" fill="#39302A"/>
</svg>
